<?xml version="1.0" standalone="no"?>
<!DOCTYPE svg PUBLIC "-//W3C//DTD SVG 20010904//EN"
 "http://www.w3.org/TR/2001/REC-SVG-20010904/DTD/svg10.dtd">
<svg version="1.0" xmlns="http://www.w3.org/2000/svg"
 width="302.000000pt" height="313.000000pt" viewBox="0 0 302.000000 313.000000"
 preserveAspectRatio="xMidYMid meet">

<g transform="translate(0.000000,313.000000) scale(0.100000,-0.100000)"
fill="#000000" stroke="none">
<path d="M1419 3021 c-54 -17 8 29 -869 -641 -190 -144 -358 -275 -374 -289
-43 -39 -76 -116 -76 -180 0 -54 8 -82 346 -1176 58 -187 117 -359 130 -383
28 -47 86 -94 142 -114 29 -10 196 -13 782 -13 l745 0 46 22 c51 25 119 93
136 138 6 17 27 82 46 145 20 63 54 176 77 250 23 74 46 151 52 170 6 19 17
53 24 75 7 22 29 94 49 160 20 66 47 154 60 195 13 41 42 136 65 210 23 74 50
162 61 194 25 77 24 168 -1 223 -10 24 -38 61 -62 83 -24 22 -299 236 -613
475 -594 454 -613 466 -704 464 -20 0 -48 -4 -62 -8z m166 -40 c22 -11 303
-221 625 -468 556 -426 586 -451 613 -502 18 -36 27 -70 27 -100 0 -43 -76
-298 -381 -1281 -38 -124 -82 -245 -97 -270 -19 -31 -43 -52 -81 -72 l-53 -28
-749 0 c-655 0 -754 2 -787 16 -46 19 -88 58 -112 104 -10 19 -82 242 -160
495 -78 253 -178 577 -223 720 -89 288 -97 338 -59 410 11 22 35 54 54 71 65
62 1154 887 1193 905 53 24 138 24 190 0z"/>
<path d="M1344 2683 l6 -47 -38 37 c-48 47 -67 49 -58 5 4 -18 9 -50 13 -70 3
-24 11 -38 20 -38 12 0 13 9 8 43 l-7 42 38 -36 c50 -47 64 -42 53 19 -14 78
-19 92 -31 92 -7 0 -9 -15 -4 -47z"/>
<path d="M1480 2660 c0 -40 4 -70 10 -70 6 0 10 11 10 24 0 19 7 25 35 30 41
8 61 36 45 66 -8 15 -21 20 -55 20 l-45 0 0 -70z m75 30 c0 -9 -11 -16 -27
-18 -27 -3 -38 14 -21 32 12 12 48 2 48 -14z"/>
<path d="M1635 2698 c-14 -65 -24 -113 -22 -114 1 -1 26 -7 55 -12 42 -7 52
-7 52 4 0 8 -9 14 -19 14 -33 0 -51 11 -51 31 0 17 5 18 40 13 50 -8 55 12 5
22 -22 4 -35 12 -35 21 0 12 9 14 40 10 53 -7 55 18 3 27 -57 9 -62 8 -68 -16z"/>
<path d="M1770 2624 c-12 -36 -20 -68 -17 -71 11 -10 26 7 32 37 10 44 22 37
31 -17 13 -70 35 -68 59 4 27 81 28 83 15 83 -6 0 -19 -19 -29 -42 l-19 -43
-7 40 c-17 99 -35 101 -65 9z"/>
<path d="M1133 2673 c-9 -3 -13 -29 -13 -79 0 -59 3 -74 15 -74 8 0 15 9 15
20 0 27 43 44 70 28 39 -24 31 2 -16 56 -27 31 -51 55 -54 55 -3 0 -11 -3 -17
-6z m41 -74 c-11 -18 -24 -8 -24 19 1 26 1 26 15 8 8 -10 12 -23 9 -27z"/>
<path d="M1021 2627 c-6 -8 -14 -28 -17 -45 -8 -38 -10 -39 -34 -9 -32 39 -35
7 -5 -49 33 -60 40 -68 55 -59 6 4 5 13 -2 24 -6 10 -8 26 -5 35 6 14 10 13
42 -5 25 -15 40 -18 47 -11 6 6 -3 17 -32 33 -39 22 -41 25 -35 61 7 41 4 46
-14 25z"/>
<path d="M1931 2593 c-11 -10 -24 -32 -27 -50 -13 -66 88 -116 114 -58 11 23
9 27 -13 37 -28 12 -48 2 -25 -12 22 -14 0 -30 -27 -19 -41 15 -22 89 22 89
14 0 30 -9 37 -20 13 -21 38 -27 38 -10 0 20 -49 60 -73 60 -14 0 -34 -8 -46
-17z"/>
<path d="M880 2540 c0 -17 72 -111 82 -108 15 5 13 10 -23 65 -31 48 -59 68
-59 43z"/>
<path d="M2073 2473 c-67 -40 -81 -59 -35 -50 32 7 59 -10 64 -41 6 -42 21
-27 40 38 17 62 18 90 1 90 -4 0 -36 -17 -70 -37z m50 -23 c-6 -22 -18 -26
-29 -9 -3 6 0 15 7 20 22 14 28 11 22 -11z"/>
<path d="M777 2465 l-28 -25 47 -56 47 -55 34 33 c39 38 42 66 8 102 -31 33
-71 33 -108 1z m83 -17 c23 -25 26 -48 8 -66 -18 -18 -23 -15 -53 24 -27 35
-27 37 -10 50 25 19 31 18 55 -8z"/>
<path d="M704 2398 c-8 -13 94 -110 108 -102 16 10 7 22 -46 68 -37 32 -57 43
-62 34z"/>
<path d="M2230 2355 c-39 -41 -57 -44 -62 -12 -3 25 -21 26 -26 2 -5 -21 26
-55 47 -55 20 0 104 83 95 93 -12 12 -19 8 -54 -28z"/>
<path d="M629 2309 c-16 -17 -29 -35 -29 -39 0 -4 24 -26 53 -49 l52 -41 28
30 c35 39 34 64 -2 101 -38 37 -66 37 -102 -2z m79 -15 c25 -18 29 -46 7 -64
-12 -10 -21 -7 -49 18 -31 27 -33 31 -18 46 20 20 32 20 60 0z"/>
<path d="M2278 2287 c-43 -12 -68 -25 -68 -34 0 -8 8 -13 19 -11 29 5 63 -30
51 -52 -7 -12 -6 -21 3 -28 9 -8 21 7 49 58 47 85 39 94 -54 67z m40 -36 c-9
-15 -15 -17 -26 -9 -10 9 -11 13 0 19 7 5 19 9 26 9 10 0 10 -4 0 -19z"/>
<path d="M556 2212 c-3 -5 14 -20 37 -33 l42 -24 -59 -5 c-33 -3 -61 -9 -62
-15 -4 -10 96 -75 115 -75 22 0 10 19 -26 42 l-38 23 58 5 c31 3 58 9 60 14 2
9 -99 76 -115 76 -4 0 -9 -4 -12 -8z"/>
<path d="M2355 2169 c-62 -39 -58 -36 -50 -48 4 -8 16 -6 36 4 27 15 29 14 29
-4 0 -11 -5 -32 -12 -46 -9 -20 -9 -28 0 -37 9 -9 15 -5 24 19 10 27 16 31 38
26 17 -3 31 1 40 12 12 15 11 23 -9 61 -13 24 -29 44 -35 44 -6 0 -33 -14 -61
-31z m85 -47 c0 -18 -30 -11 -44 11 -8 14 -8 20 4 27 16 10 40 -12 40 -38z"/>
<path d="M470 2051 c-11 -22 -20 -45 -20 -51 0 -9 101 -60 119 -60 13 0 51 89
41 95 -6 3 -17 -10 -27 -29 -18 -39 -21 -40 -41 -27 -12 7 -11 14 2 38 14 29
13 43 -6 43 -4 0 -8 -6 -8 -13 0 -7 -6 -22 -14 -33 -11 -14 -18 -16 -26 -8 -9
9 -8 19 4 42 10 19 12 33 6 37 -5 3 -18 -12 -30 -34z"/>
<path d="M1852 2020 c-7 -12 -8 -21 -2 -25 6 -4 8 -11 5 -16 -11 -16 11 -9 29
9 15 18 15 20 -2 35 -16 15 -19 15 -30 -3z"/>
<path d="M1923 2025 c-19 -21 -16 -82 3 -89 22 -8 21 -9 26 19 3 14 1 25 -5
25 -6 0 -1 9 11 20 22 21 30 36 13 25 -5 -3 -12 -1 -16 5 -8 13 -17 12 -32 -5z"/>
<path d="M2370 2010 c0 -6 11 -15 24 -20 29 -11 42 -45 25 -66 -8 -9 -9 -18
-3 -24 13 -13 119 94 110 109 -9 14 -156 15 -156 1z m105 -30 c-12 -13 -22
-17 -28 -11 -13 13 1 31 25 31 21 0 21 -1 3 -20z"/>
<path d="M1440 1915 c-85 -194 -94 -228 -94 -355 -1 -83 4 -131 17 -172 l18
-58 108 0 108 0 19 63 c12 41 18 95 18 162 0 86 -5 113 -31 190 -31 89 -108
265 -116 265 -3 0 -24 -43 -47 -95z m71 -126 c27 -54 49 -161 42 -207 -7 -46
-53 -134 -67 -129 -6 1 -23 27 -38 57 -41 79 -37 153 14 273 11 26 22 47 24
47 2 0 13 -18 25 -41z"/>
<path d="M2045 1979 c-4 -6 -12 -8 -19 -6 -6 3 -12 -3 -12 -13 0 -10 3 -17 7
-14 4 2 10 -3 13 -11 6 -16 14 -14 55 14 12 8 12 12 -2 25 -18 19 -33 20 -42
5z"/>
<path d="M433 1932 c-13 -8 -33 -55 -33 -77 0 -14 118 -57 133 -48 15 9 6 23
-18 29 -23 6 -24 10 -19 44 5 32 3 40 -14 49 -24 13 -33 13 -49 3z m37 -46 c0
-29 -10 -38 -29 -27 -17 11 -5 51 15 51 8 0 14 -10 14 -24z"/>
<path d="M2005 1898 c1 -13 9 -24 18 -26 9 -2 18 -11 20 -20 3 -15 5 -14 11 3
4 11 12 28 17 39 7 13 7 16 0 11 -6 -3 -11 -2 -11 2 0 5 -13 10 -28 11 -24 2
-28 -2 -27 -20z"/>
<path d="M2165 1901 c-4 -7 -16 -11 -26 -8 -24 7 -30 -14 -10 -37 15 -18 15
-18 -6 -12 -18 6 -22 4 -17 -7 3 -8 1 -18 -5 -22 -16 -9 -13 -25 4 -25 7 0 18
-8 23 -17 8 -14 12 -12 26 16 9 17 14 36 11 42 -4 5 7 14 24 20 30 11 43 29
20 29 -7 0 -17 7 -24 17 -9 12 -14 13 -20 4z"/>
<path d="M2478 1884 c-60 -18 -65 -39 -7 -30 l42 7 -32 -36 c-28 -32 -41 -65
-25 -65 3 0 35 8 70 17 40 11 64 22 64 31 0 10 -7 12 -22 8 -78 -21 -76 -22
-35 21 60 63 44 78 -55 47z"/>
<path d="M1155 1858 c-43 -24 -95 -70 -95 -83 0 -10 16 -15 53 -17 l52 -3 3
-59 c4 -84 -9 -91 -59 -33 -22 26 -47 47 -55 47 -8 0 -32 -16 -54 -37 -56 -49
-52 -79 10 -102 41 -15 45 -20 48 -54 2 -20 1 -37 -2 -37 -3 0 -22 11 -42 25
-76 52 -104 28 -104 -90 0 -112 14 -131 84 -115 55 12 87 7 68 -12 -6 -6 -31
-14 -54 -17 -41 -6 -43 -8 -51 -50 -9 -46 3 -91 24 -91 6 0 24 14 41 30 16 17
35 30 42 30 15 0 46 -32 46 -48 0 -14 -33 -32 -59 -32 -32 0 -25 -16 31 -76
56 -60 161 -118 238 -133 36 -7 19 -9 -85 -10 l-129 -1 -37 36 c-21 20 -42 33
-48 29 -27 -16 -50 -84 -49 -139 1 -53 2 -55 13 -29 21 50 38 57 84 34 38 -20
56 -21 420 -21 363 0 382 1 413 20 43 26 49 25 76 -13 l24 -32 -5 73 c-4 72
-4 73 24 87 36 19 39 19 39 -3 0 -20 35 -62 51 -62 6 0 8 7 5 15 -3 9 1 18 9
21 19 8 19 33 0 40 -20 8 -19 26 5 57 l20 26 27 -25 c29 -27 56 -32 47 -9 -4
8 -1 15 5 15 19 0 12 27 -8 33 -22 5 -24 38 -5 71 10 17 13 17 42 2 36 -19 90
-23 59 -5 -14 8 -16 14 -7 24 15 18 4 36 -18 33 -19 -3 -27 22 -17 59 4 18 10
23 23 18 9 -3 28 -9 42 -11 23 -5 25 -2 25 28 0 24 -4 33 -17 33 -10 0 -24 9
-32 20 -14 20 -15 20 -24 -5 -9 -22 -11 -23 -17 -7 -5 13 -11 15 -20 7 -7 -6
-19 -9 -26 -8 -8 2 -15 -8 -17 -22 -2 -14 -9 -28 -16 -32 -13 -9 2 -11 47 -8
l28 2 -16 -33 c-10 -17 -20 -28 -24 -23 -3 5 -21 10 -38 12 -27 2 -33 -2 -33
-18 0 -13 -7 -20 -20 -20 -13 0 -18 -5 -14 -15 4 -9 19 -15 35 -15 29 0 35 -6
21 -26 -12 -18 -44 -25 -59 -12 -12 10 -18 8 -33 -11 -11 -15 -22 -21 -31 -17
-8 4 -1 -4 16 -18 32 -28 32 -30 -8 -40 -20 -5 -29 -2 -33 9 -8 20 -33 19 -41
-1 -3 -9 -13 -14 -24 -11 -25 7 -24 -8 2 -32 15 -13 17 -21 9 -26 -7 -4 -16
-2 -20 5 -6 10 -20 3 -53 -24 l-44 -36 -134 1 -134 1 62 13 c35 8 86 26 115
42 50 27 168 133 168 152 0 5 -18 11 -39 15 -22 3 -42 10 -45 15 -10 15 3 37
30 51 22 12 27 11 56 -19 43 -44 62 -38 66 21 4 64 -10 88 -52 88 -32 0 -66
24 -53 37 4 3 32 1 64 -6 76 -15 85 -6 90 96 6 125 -30 162 -106 109 -47 -33
-51 -32 -51 3 0 33 13 46 66 64 55 19 56 47 6 97 -52 52 -73 51 -114 -5 -47
-64 -58 -59 -58 25 l0 70 55 0 c30 0 55 4 55 8 0 10 -56 63 -90 85 -13 10 -36
17 -51 17 -65 0 -83 -75 -74 -302 8 -201 3 -217 -81 -254 -51 -22 -54 -26 -48
-51 4 -16 17 -48 30 -72 13 -24 24 -45 24 -47 0 -2 -22 -4 -49 -4 -44 0 -50 3
-55 25 -3 13 -11 37 -17 52 l-11 28 -17 -50 -18 -50 -56 -3 -56 -3 29 53 c43
77 40 99 -15 122 -84 34 -86 40 -83 270 2 182 0 205 -17 241 -16 32 -26 40
-50 42 -16 2 -39 -2 -50 -9z m349 -693 c7 -34 8 -35 59 -37 29 0 58 -2 65 -2
20 -2 54 -67 55 -105 1 -30 -6 -41 -53 -83 l-54 -48 -93 0 c-100 0 -105 2
-170 68 -19 20 -33 44 -33 58 0 26 33 98 50 109 5 3 30 -8 54 -25 l44 -32 -18
-54 c-11 -30 -17 -54 -15 -54 3 0 24 14 49 31 l45 32 42 -31 c23 -18 44 -30
45 -29 2 2 -3 25 -12 52 l-15 50 33 27 c18 15 29 27 23 27 -5 0 -23 -10 -39
-23 -29 -24 -30 -37 -10 -91 6 -15 1 -14 -33 6 l-40 23 -30 -22 c-17 -12 -33
-22 -36 -22 -2 0 1 17 9 38 13 37 13 37 -24 69 l-37 33 47 0 c46 0 47 1 59 40
14 46 24 44 33 -5z"/>
<path d="M2198 1798 c-3 -7 2 -24 10 -38 12 -18 12 -22 2 -12 -17 14 -34 16
-25 2 3 -6 -1 -13 -9 -16 -18 -7 -22 -34 -6 -34 6 0 10 -7 10 -15 0 -21 13
-19 35 5 10 11 22 17 27 14 6 -4 5 3 -1 14 -15 29 -14 32 13 32 13 0 29 7 36
15 10 12 10 15 0 15 -7 0 -18 8 -25 17 -10 14 -16 15 -27 5 -10 -8 -18 -8 -25
-1 -8 8 -12 7 -15 -3z"/>
<path d="M370 1716 c0 -10 13 -16 43 -18 l42 -3 -47 -24 c-80 -41 -73 -50 45
-66 39 -5 47 -3 47 9 0 12 -10 16 -34 16 -49 0 -52 15 -7 34 75 30 66 50 -26
60 -52 6 -63 4 -63 -8z"/>
<path d="M2264 1676 c-3 -14 -10 -23 -15 -20 -5 3 -9 0 -9 -7 0 -6 -8 -18 -17
-25 -15 -11 -16 -15 -4 -23 7 -5 10 -14 7 -20 -11 -18 17 -12 42 9 13 11 21
24 17 30 -3 6 4 10 17 10 39 0 52 14 38 40 -7 13 -17 19 -27 16 -9 -4 -22 -1
-29 5 -10 8 -15 5 -20 -15z"/>
<path d="M2532 1680 c-29 -4 -56 -10 -58 -13 -9 -9 8 -78 23 -92 19 -20 73
-19 101 1 15 10 22 25 22 49 0 42 -9 65 -24 64 -6 -1 -35 -5 -64 -9z m66 -47
c4 -28 -21 -45 -60 -41 -27 2 -34 8 -36 30 -3 24 0 27 35 31 52 5 58 3 61 -20z"/>
<path d="M420 1556 c-87 -30 -87 -48 3 -86 53 -23 67 -26 67 -14 0 8 -7 17
-15 20 -23 9 -19 61 5 69 11 3 20 13 20 21 0 17 -1 17 -80 -10z m20 -41 c0
-16 -9 -19 -36 -8 -16 6 -16 7 2 14 29 11 34 10 34 -6z"/>
<path d="M2302 1549 c-6 -14 -11 -18 -16 -11 -5 8 -13 6 -28 -8 -16 -15 -18
-22 -10 -33 9 -10 9 -16 0 -25 -7 -7 -8 -12 -4 -12 13 0 66 34 66 42 0 4 15 8
34 8 30 0 33 2 28 25 -2 14 -10 25 -17 25 -8 0 -20 3 -29 6 -11 4 -19 -1 -24
-17z"/>
<path d="M2480 1471 c0 -28 5 -53 10 -56 6 -3 10 4 10 17 0 43 12 69 29 66 11
-2 16 -14 17 -38 0 -18 5 -35 12 -38 8 -2 12 9 12 32 0 25 4 36 15 36 10 0 15
-11 15 -35 0 -24 5 -35 15 -35 11 0 15 12 15 50 l0 50 -75 0 -75 0 0 -49z"/>
<path d="M2309 1424 c-1 -32 -2 -34 -8 -15 -6 24 -31 42 -31 23 0 -5 -9 -12
-21 -15 -15 -4 -19 -11 -14 -25 3 -11 1 -24 -6 -27 -23 -15 13 -23 40 -9 23
12 27 12 33 -4 6 -14 7 -14 7 4 1 20 5 21 47 16 39 -4 45 -2 38 9 -5 8 -9 21
-9 29 0 8 -9 16 -20 18 -11 2 -28 11 -37 20 -17 14 -18 12 -19 -24z"/>
<path d="M420 1394 c-6 -14 -10 -31 -10 -39 0 -8 -5 -17 -10 -20 -16 -10 -24
26 -11 47 14 23 9 33 -14 24 -22 -8 -16 -75 8 -90 23 -15 51 3 55 37 2 14 10
31 17 37 21 18 31 -15 15 -46 -16 -28 -7 -42 14 -25 22 19 28 45 17 75 -15 37
-67 37 -81 0z"/>
<path d="M2521 1371 c-61 -8 -63 -27 -4 -53 l48 -22 -52 -9 c-36 -6 -53 -13
-53 -23 0 -14 64 -47 117 -60 43 -11 22 17 -27 36 l-45 17 53 8 c67 9 71 34
10 60 l-43 19 48 4 c33 2 47 7 47 18 0 15 -19 16 -99 5z"/>
<path d="M442 1258 c-64 -42 -71 -51 -50 -64 16 -10 141 -34 147 -28 2 2 -8
15 -22 28 -31 29 -34 53 -9 72 11 9 14 16 7 23 -7 7 -30 -3 -73 -31z m24 -55
c-3 -3 -13 -2 -23 1 -17 7 -17 8 2 22 18 13 20 13 23 -1 2 -9 1 -19 -2 -22z"/>
<path d="M2450 1207 c0 -7 5 -18 11 -24 15 -15 0 -63 -21 -63 -10 0 -20 -7
-24 -15 -4 -12 3 -15 37 -15 73 0 117 11 116 29 0 14 -98 101 -113 101 -3 0
-6 -6 -6 -13z m80 -79 c0 -5 -11 -8 -25 -8 -27 0 -28 1 -19 24 5 12 9 13 25 3
10 -6 19 -15 19 -19z"/>
<path d="M407 1115 c3 -9 18 -19 34 -22 32 -6 36 -15 14 -33 -8 -7 -15 -22
-15 -34 1 -18 5 -16 34 16 18 20 44 42 59 47 43 17 31 29 -25 27 -29 0 -65 3
-80 7 -23 6 -26 4 -21 -8z"/>
<path d="M516 1004 c-31 -36 -45 -59 -39 -65 14 -14 145 -7 151 9 2 7 -5 12
-17 12 -27 0 -42 31 -35 69 4 17 3 31 -2 31 -5 0 -31 -25 -58 -56z m43 -38
c-2 -2 -15 -7 -29 -11 -25 -8 -25 -8 -6 14 13 14 23 18 30 11 5 -5 8 -11 5
-14z"/>
<path d="M2396 1045 c-22 -22 -28 -52 -16 -75 15 -28 54 -26 78 5 23 28 42 33
42 9 0 -9 -9 -18 -20 -21 -23 -6 -27 -33 -6 -33 46 0 64 92 19 98 -14 2 -32
-6 -46 -22 -29 -31 -47 -33 -47 -6 0 13 10 24 25 30 14 5 25 14 25 20 0 15
-37 12 -54 -5z"/>
<path d="M2345 950 c-3 -5 -2 -17 3 -27 15 -25 -6 -63 -35 -63 -27 0 -33 -30
-5 -31 9 0 41 -4 70 -8 81 -11 85 5 24 79 -28 33 -53 56 -57 50z m53 -88 c2
-7 -6 -12 -17 -12 -21 0 -27 11 -14 24 9 9 26 2 31 -12z"/>
<path d="M624 885 c-10 -8 -41 -15 -67 -15 -30 0 -46 -4 -42 -10 3 -5 22 -10
41 -10 l35 0 -17 -31 c-10 -21 -12 -35 -6 -41 7 -7 17 3 31 31 12 22 32 48 46
57 14 9 22 20 19 25 -7 13 -17 11 -40 -6z"/>
<path d="M700 760 c-24 -24 -25 -48 -4 -78 18 -26 65 -30 88 -6 20 20 20 68 0
88 -21 22 -60 20 -84 -4z"/>
<path d="M2197 762 c-22 -24 -21 -65 1 -85 40 -36 102 -9 102 45 0 51 -69 78
-103 40z"/>
<path d="M2001 747 l-1 -27 -515 2 c-283 2 -515 0 -515 -4 0 -5 232 -8 515 -8
550 0 535 -1 522 47 -3 12 -5 8 -6 -10z"/>
<path d="M822 598 c45 -37 76 -139 46 -151 -7 -3 7 -5 32 -5 25 0 39 2 33 5
-33 13 1 127 45 153 14 7 10 9 -16 10 -18 0 -31 -4 -27 -9 6 -11 -15 -61 -26
-61 -13 0 -31 40 -25 56 4 11 -4 14 -36 14 -35 0 -39 -2 -26 -12z"/>
<path d="M1042 569 c-11 -25 -29 -64 -40 -87 l-20 -42 26 0 c18 0 23 3 14 8
-24 16 -2 43 32 40 25 -2 31 -7 30 -25 -1 -22 3 -23 85 -23 63 1 81 3 69 11
-24 14 -24 59 0 59 28 0 62 29 62 54 0 35 -20 46 -84 46 -51 0 -57 -2 -42 -13
14 -10 16 -25 14 -77 -3 -61 -4 -65 -27 -65 -21 0 -30 11 -56 72 -17 40 -34
76 -38 79 -4 4 -15 -13 -25 -37z m216 -8 c-4 -38 -38 -42 -38 -3 0 34 7 43 27
35 8 -3 13 -16 11 -32z m-188 -48 c0 -6 -8 -9 -20 -6 -16 4 -18 9 -9 25 9 17
13 18 20 7 5 -8 9 -19 9 -26z"/>
<path d="M1323 599 c13 -8 17 -24 17 -74 0 -50 -4 -66 -17 -74 -14 -8 -6 -10
32 -10 28 1 42 3 33 6 -25 6 -25 63 0 63 28 0 62 29 62 54 0 35 -19 46 -84 46
-46 -1 -57 -3 -43 -11z m85 -38 c-4 -38 -38 -42 -38 -3 0 34 7 43 27 35 8 -3
13 -16 11 -32z"/>
<path d="M1470 600 c20 -13 20 -138 -1 -151 -9 -5 12 -9 57 -9 63 0 72 2 77
20 6 24 1 25 -20 4 -26 -26 -58 -14 -61 24 -3 26 0 32 15 32 11 0 24 -5 31
-12 9 -9 12 -4 12 22 0 26 -3 31 -12 22 -7 -7 -20 -12 -31 -12 -14 0 -18 6
-15 27 4 34 32 42 59 17 18 -16 19 -16 19 4 0 21 -5 22 -72 22 -50 0 -68 -3
-58 -10z"/>
<path d="M1628 603 c8 -3 12 -29 12 -78 0 -49 -4 -75 -12 -78 -7 -3 3 -6 22
-6 22 0 30 2 22 8 -9 5 -12 26 -10 65 l3 57 50 -65 c28 -36 53 -65 58 -66 4 0
7 36 7 81 l0 80 28 -3 c26 -3 27 -5 30 -68 2 -52 0 -67 -14 -77 -15 -11 -9
-13 43 -13 52 0 66 4 92 26 26 21 31 33 31 69 0 65 -20 75 -150 74 -58 0 -99
-3 -92 -6 7 -3 12 -23 12 -50 l0 -46 -41 52 c-34 43 -46 51 -72 50 -18 0 -26
-3 -19 -6z m306 -19 c10 -9 16 -33 16 -59 0 -36 -5 -48 -25 -61 -42 -27 -55
-13 -55 59 0 35 3 67 7 70 11 12 41 7 57 -9z"/>
<path d="M2053 568 c-9 -23 -27 -62 -39 -85 l-21 -43 26 1 c14 0 21 3 15 5 -7
3 -10 14 -7 24 4 15 14 20 38 20 24 0 34 -5 38 -20 3 -10 0 -21 -7 -24 -6 -2
9 -5 34 -5 25 0 40 3 33 7 -7 4 -28 42 -47 85 -20 42 -38 77 -41 77 -3 0 -13
-19 -22 -42z m27 -45 c0 -7 -7 -13 -15 -13 -16 0 -19 9 -9 35 5 13 8 14 15 3
5 -7 9 -19 9 -25z"/>
</g>
</svg>
